<svg width="31" height="31" viewBox="0 0 31 31" fill="none" xmlns="http://www.w3.org/2000/svg">
<g clip-path="url(#clip0_25_218)">
<path d="M15.4001 26.9501C21.779 26.9501 26.9501 21.779 26.9501 15.4001C26.9501 9.02121 21.779 3.8501 15.4001 3.8501C9.02121 3.8501 3.8501 9.02121 3.8501 15.4001C3.8501 21.779 9.02121 26.9501 15.4001 26.9501Z" stroke="white" stroke-width="1.925" stroke-linecap="round" stroke-linejoin="round"/>
<path d="M4.62012 11.5503H26.1801" stroke="white" stroke-width="1.925" stroke-linecap="round" stroke-linejoin="round"/>
<path d="M4.62012 19.25H26.1801" stroke="white" stroke-width="1.925" stroke-linecap="round" stroke-linejoin="round"/>
<path d="M14.7584 3.8501C12.5964 7.3146 11.4502 11.3164 11.4502 15.4001C11.4502 19.4838 12.5964 23.4856 14.7584 26.9501" stroke="white" stroke-width="1.925" stroke-linecap="round" stroke-linejoin="round"/>
<path d="M16.0417 3.8501C18.2037 7.3146 19.3499 11.3164 19.3499 15.4001C19.3499 19.4838 18.2037 23.4856 16.0417 26.9501" stroke="white" stroke-width="1.925" stroke-linecap="round" stroke-linejoin="round"/>
</g>
<defs>
<clipPath id="clip0_25_218">
<rect width="30.8" height="30.8" fill="white"/>
</clipPath>
</defs>
</svg>
