<svg width="31" height="31" viewBox="0 0 31 31" fill="none" xmlns="http://www.w3.org/2000/svg">
<g clip-path="url(#clip0_25_232)">
<path d="M28.2333 5.14633C26.95 5.77516 25.6923 6.03055 24.3833 6.41683C22.9447 4.79341 20.8118 4.70358 18.7623 5.47101C16.7128 6.23845 15.3705 8.11468 15.4 10.2668V11.5502C11.2356 11.6567 7.52673 9.75991 5.13332 6.41683C5.13332 6.41683 -0.233584 15.9558 10.2667 20.5335C7.86425 22.1338 5.46827 23.2131 2.56665 23.1002C6.81192 25.414 11.4383 26.2097 15.4436 25.047C20.038 23.7123 23.8135 20.2691 25.2624 15.1114C25.6946 13.5428 25.9092 11.9222 25.9002 10.2951C25.8977 9.97551 27.8381 6.73766 28.2333 5.14505V5.14633Z" stroke="white" stroke-width="1.925" stroke-linecap="round" stroke-linejoin="round"/>
</g>
<defs>
<clipPath id="clip0_25_232">
<rect width="30.8" height="30.8" fill="white"/>
</clipPath>
</defs>
</svg>
